<svg width="21" height="21" viewBox="0 0 21 21" fill="none" xmlns="http://www.w3.org/2000/svg">
<path d="M14.0259 20.4225C13.9251 20.4582 13.8243 20.5023 13.7214 20.5212C13.3266 20.5926 13.0746 20.3889 13.0704 19.9836C13.0662 19.2339 13.0662 18.4842 13.0788 17.7345C13.0914 16.8714 13.0704 16.0209 12.4152 15.309C12.8058 15.2397 13.1523 15.1893 13.4925 15.1116C15.7437 14.595 16.9113 13.1754 17.0604 10.8192C17.136 9.62011 16.9218 8.51971 16.1259 7.57471C16.0692 7.50751 16.065 7.35631 16.0923 7.25971C16.3044 6.47851 16.2435 5.71621 15.9957 4.95181C15.9348 4.76071 15.8319 4.70191 15.645 4.71451C14.9835 4.75021 14.3787 4.98331 13.8453 5.34031C13.3308 5.68471 12.852 5.76031 12.2409 5.62171C10.8948 5.31721 9.5403 5.40751 8.1963 5.71831C8.0451 5.75401 7.8393 5.70571 7.7007 5.62381C7.0707 5.25421 6.4407 4.89511 5.712 4.75231C5.1492 4.64311 5.1009 4.67041 4.9518 5.21431C4.7649 5.89891 4.746 6.58561 4.9371 7.27441C4.9644 7.37521 4.935 7.53481 4.8699 7.61041C3.3789 9.27361 3.9186 12.4152 4.9224 13.6185C5.7036 14.553 6.741 14.973 7.8918 15.1935C8.0934 15.2313 8.2929 15.2586 8.4945 15.2943C8.3223 15.7437 8.1669 16.1658 7.9926 16.5837C7.959 16.6635 7.8498 16.7307 7.7595 16.7664C6.6297 17.2053 5.6595 16.8819 5.0127 15.8571C4.6662 15.3111 4.2231 14.9016 3.5637 14.784C3.5427 14.7798 3.5217 14.7693 3.5028 14.7714C3.3243 14.8176 3.15 14.8659 2.9715 14.9142C3.0723 15.0528 3.1416 15.2397 3.276 15.3237C3.8367 15.6786 4.2 16.1826 4.4415 16.779C4.8195 17.7135 5.5545 18.1314 6.5079 18.2112C6.9741 18.249 7.4445 18.2175 7.9527 18.2175C7.9527 18.7971 7.9737 19.4607 7.9443 20.1201C7.9296 20.475 7.5726 20.6178 7.1442 20.4708C6.0102 20.0823 4.9581 19.5258 4.0488 18.7446C0.766499 15.9201 -0.497702 12.348 0.592199 8.16691C1.68 3.9984 4.5129 1.4427 8.7465 0.640504C14.6076 -0.468297 20.1579 3.801 20.7396 9.74821C21.1995 14.4396 18.4401 18.8265 14.0259 20.4225ZM8.5008 15.2733C8.4966 15.2817 8.4945 15.288 8.4924 15.2964C8.5029 15.2985 8.5134 15.3006 8.5239 15.3006C8.5323 15.3006 8.5386 15.3153 8.5008 15.2733ZM5.8506 17.1276C5.9409 17.1843 6.0291 17.2557 6.1278 17.2872C6.1635 17.2998 6.2307 17.2158 6.3483 17.1297C6.1845 17.0667 6.0879 17.0121 5.985 16.9974C5.9472 16.9911 5.8947 17.0814 5.8506 17.1276ZM6.6843 17.2704C6.6969 17.3313 6.8187 17.409 6.8922 17.4069C6.9615 17.4048 7.0287 17.3145 7.098 17.262C7.035 17.2053 6.972 17.1486 6.7788 16.9743C6.7368 17.094 6.6675 17.1927 6.6843 17.2704ZM7.7091 17.0226C7.623 17.0436 7.5495 17.1234 7.4718 17.178C7.518 17.2368 7.5642 17.2893 7.6377 17.3817C7.7406 17.2893 7.8099 17.2242 7.8792 17.1612C7.8204 17.1108 7.7532 17.0121 7.7091 17.0226ZM5.1702 16.6782C5.2185 16.7685 5.292 16.8462 5.3928 16.9743C5.46 16.8651 5.5335 16.7811 5.5188 16.7643C5.4558 16.6803 5.3697 16.6131 5.2836 16.5501C5.2794 16.5459 5.1597 16.6572 5.1702 16.6782Z" fill="white"/>
</svg>
