<svg width="817" height="354" viewBox="0 0 817 354" fill="none" xmlns="http://www.w3.org/2000/svg">
<path d="M175.226 149.407V175.886C175.226 177.204 174.092 179.377 172.774 180.691L145.805 207.66C145.146 208.319 144.472 208.64 144.04 208.64C143.609 208.64 143.354 208.319 143.354 207.66V210.602C143.354 211.92 144.487 213.054 145.805 213.054H204.548C205.866 213.054 207 211.92 207 210.602V151.761C207 150.443 205.866 149.407 204.548 149.407H175.226ZM137.862 210.602C137.862 211.92 136.724 213.054 135.41 213.054H106.088V245.024C106.088 245.683 106.347 246.004 106.774 246.004C107.202 246.004 107.783 245.683 108.442 245.024L135.41 218.055C136.724 216.737 137.862 214.568 137.862 213.25V210.602V210.602Z" fill="#7D8990"/>
<path d="M174.539 116.064C174.106 116.064 173.433 116.386 172.774 117.045L145.805 144.112C144.491 145.426 143.354 147.501 143.354 148.819V151.761V207.66C143.354 208.978 144.491 208.978 145.805 207.66L172.774 180.691C174.092 179.373 175.226 177.204 175.226 175.886V149.408V117.045C175.226 116.386 174.973 116.064 174.539 116.064V116.064ZM76.6675 149.408C75.3495 149.408 74.2158 150.443 74.2158 151.761V210.602C74.2158 211.92 75.3495 213.054 76.6675 213.054H135.41C136.728 213.054 137.862 211.92 137.862 210.602V151.761C137.862 150.443 136.728 149.408 135.41 149.408H76.6675V149.408Z" fill="#E2001A"/>
<path d="M145.805 149.407C144.487 149.407 143.354 150.541 143.354 151.859V207.66C143.354 208.319 143.609 208.64 144.04 208.64C144.472 208.64 145.146 208.319 145.805 207.66L172.774 180.691C174.092 179.373 175.226 177.2 175.226 175.886V149.407H145.805V149.407ZM137.175 153.428C136.74 153.428 136.069 153.754 135.41 154.409L108.442 181.476C107.127 182.817 106.088 184.869 106.088 186.183V213.054H135.41C136.728 213.054 137.862 211.92 137.862 210.602V154.409C137.862 153.754 137.607 153.428 137.175 153.428V153.428Z" fill="#8E1016"/>
<path d="M274.892 220L264.903 185.091H272.966L278.744 209.347H279.034L285.409 185.091H292.312L298.67 209.398H298.977L304.756 185.091H312.818L302.83 220H295.636L288.989 197.176H288.716L282.085 220H274.892ZM325.751 220.511C323.058 220.511 320.74 219.966 318.797 218.875C316.865 217.773 315.376 216.216 314.331 214.205C313.286 212.182 312.763 209.79 312.763 207.028C312.763 204.335 313.286 201.972 314.331 199.938C315.376 197.903 316.848 196.318 318.746 195.182C320.655 194.045 322.893 193.477 325.462 193.477C327.189 193.477 328.797 193.756 330.286 194.312C331.786 194.858 333.092 195.682 334.206 196.784C335.331 197.886 336.206 199.273 336.831 200.943C337.456 202.602 337.768 204.545 337.768 206.773V208.767H315.661V204.267H330.933C330.933 203.222 330.706 202.295 330.251 201.489C329.797 200.682 329.166 200.051 328.359 199.597C327.564 199.131 326.638 198.898 325.581 198.898C324.479 198.898 323.501 199.153 322.649 199.665C321.808 200.165 321.149 200.841 320.672 201.693C320.195 202.534 319.95 203.472 319.939 204.506V208.784C319.939 210.08 320.178 211.199 320.655 212.142C321.143 213.085 321.831 213.812 322.717 214.324C323.604 214.835 324.655 215.091 325.871 215.091C326.678 215.091 327.416 214.977 328.087 214.75C328.757 214.523 329.331 214.182 329.808 213.727C330.286 213.273 330.649 212.716 330.899 212.057L337.615 212.5C337.274 214.114 336.575 215.523 335.518 216.727C334.473 217.92 333.121 218.852 331.462 219.523C329.814 220.182 327.911 220.511 325.751 220.511ZM342.643 220V185.091H349.905V198.216H350.126C350.445 197.511 350.905 196.795 351.507 196.068C352.121 195.33 352.916 194.716 353.893 194.227C354.882 193.727 356.109 193.477 357.575 193.477C359.484 193.477 361.246 193.977 362.859 194.977C364.473 195.966 365.763 197.46 366.729 199.46C367.695 201.449 368.178 203.943 368.178 206.943C368.178 209.864 367.706 212.33 366.763 214.341C365.831 216.341 364.558 217.858 362.945 218.892C361.342 219.915 359.547 220.426 357.558 220.426C356.149 220.426 354.95 220.193 353.962 219.727C352.984 219.261 352.183 218.676 351.558 217.972C350.933 217.256 350.456 216.534 350.126 215.807H349.803V220H342.643ZM349.751 206.909C349.751 208.466 349.967 209.824 350.399 210.983C350.831 212.142 351.456 213.045 352.274 213.693C353.092 214.33 354.087 214.648 355.257 214.648C356.439 214.648 357.439 214.324 358.257 213.676C359.075 213.017 359.695 212.108 360.115 210.949C360.547 209.778 360.763 208.432 360.763 206.909C360.763 205.398 360.553 204.068 360.132 202.92C359.712 201.773 359.092 200.875 358.274 200.227C357.456 199.58 356.45 199.256 355.257 199.256C354.075 199.256 353.075 199.568 352.257 200.193C351.45 200.818 350.831 201.705 350.399 202.852C349.967 204 349.751 205.352 349.751 206.909ZM384.268 220V185.091H407.791V191.176H391.649V199.494H406.581V205.58H391.649V213.915H407.859V220H384.268ZM420.784 204.864V220H413.523V193.818H420.443V198.438H420.75C421.33 196.915 422.301 195.71 423.665 194.824C425.028 193.926 426.682 193.477 428.625 193.477C430.443 193.477 432.028 193.875 433.381 194.67C434.733 195.466 435.784 196.602 436.534 198.08C437.284 199.545 437.659 201.295 437.659 203.33V220H430.398V204.625C430.409 203.023 430 201.773 429.17 200.875C428.341 199.966 427.199 199.511 425.744 199.511C424.767 199.511 423.903 199.722 423.153 200.142C422.415 200.562 421.835 201.176 421.415 201.983C421.006 202.778 420.795 203.739 420.784 204.864ZM455.178 230.364C452.825 230.364 450.808 230.04 449.126 229.392C447.456 228.756 446.126 227.886 445.138 226.784C444.149 225.682 443.507 224.443 443.212 223.068L449.928 222.165C450.132 222.688 450.456 223.176 450.899 223.631C451.342 224.085 451.928 224.449 452.655 224.722C453.393 225.006 454.291 225.148 455.348 225.148C456.928 225.148 458.229 224.761 459.251 223.989C460.286 223.227 460.803 221.949 460.803 220.153V215.364H460.496C460.178 216.091 459.7 216.778 459.064 217.426C458.428 218.074 457.609 218.602 456.609 219.011C455.609 219.42 454.416 219.625 453.03 219.625C451.064 219.625 449.274 219.17 447.661 218.261C446.058 217.341 444.78 215.937 443.825 214.051C442.882 212.153 442.411 209.756 442.411 206.858C442.411 203.892 442.893 201.415 443.859 199.426C444.825 197.437 446.109 195.949 447.712 194.96C449.325 193.972 451.092 193.477 453.013 193.477C454.479 193.477 455.706 193.727 456.695 194.227C457.683 194.716 458.479 195.33 459.081 196.068C459.695 196.795 460.166 197.511 460.496 198.216H460.768V193.818H467.979V220.256C467.979 222.483 467.433 224.347 466.342 225.847C465.251 227.347 463.74 228.472 461.808 229.222C459.888 229.983 457.678 230.364 455.178 230.364ZM455.331 214.17C456.501 214.17 457.49 213.881 458.297 213.301C459.115 212.71 459.74 211.869 460.172 210.778C460.615 209.676 460.837 208.358 460.837 206.824C460.837 205.29 460.621 203.96 460.189 202.835C459.757 201.699 459.132 200.818 458.314 200.193C457.496 199.568 456.501 199.256 455.331 199.256C454.138 199.256 453.132 199.58 452.314 200.227C451.496 200.864 450.876 201.75 450.456 202.886C450.036 204.023 449.825 205.335 449.825 206.824C449.825 208.335 450.036 209.642 450.456 210.744C450.888 211.835 451.507 212.682 452.314 213.284C453.132 213.875 454.138 214.17 455.331 214.17ZM473.757 220V193.818H481.018V220H473.757ZM477.405 190.443C476.325 190.443 475.399 190.085 474.626 189.369C473.865 188.642 473.484 187.773 473.484 186.761C473.484 185.761 473.865 184.903 474.626 184.188C475.399 183.46 476.325 183.097 477.405 183.097C478.484 183.097 479.405 183.46 480.166 184.188C480.939 184.903 481.325 185.761 481.325 186.761C481.325 187.773 480.939 188.642 480.166 189.369C479.405 190.085 478.484 190.443 477.405 190.443ZM494.097 204.864V220H486.835V193.818H493.756V198.438H494.062C494.642 196.915 495.614 195.71 496.977 194.824C498.341 193.926 499.994 193.477 501.938 193.477C503.756 193.477 505.341 193.875 506.693 194.67C508.045 195.466 509.097 196.602 509.847 198.08C510.597 199.545 510.972 201.295 510.972 203.33V220H503.71V204.625C503.722 203.023 503.313 201.773 502.483 200.875C501.653 199.966 500.511 199.511 499.057 199.511C498.08 199.511 497.216 199.722 496.466 200.142C495.727 200.562 495.148 201.176 494.727 201.983C494.318 202.778 494.108 203.739 494.097 204.864ZM528.626 220.511C525.933 220.511 523.615 219.966 521.672 218.875C519.74 217.773 518.251 216.216 517.206 214.205C516.161 212.182 515.638 209.79 515.638 207.028C515.638 204.335 516.161 201.972 517.206 199.938C518.251 197.903 519.723 196.318 521.621 195.182C523.53 194.045 525.768 193.477 528.337 193.477C530.064 193.477 531.672 193.756 533.161 194.312C534.661 194.858 535.967 195.682 537.081 196.784C538.206 197.886 539.081 199.273 539.706 200.943C540.331 202.602 540.643 204.545 540.643 206.773V208.767H518.536V204.267H533.808C533.808 203.222 533.581 202.295 533.126 201.489C532.672 200.682 532.041 200.051 531.234 199.597C530.439 199.131 529.513 198.898 528.456 198.898C527.354 198.898 526.376 199.153 525.524 199.665C524.683 200.165 524.024 200.841 523.547 201.693C523.07 202.534 522.825 203.472 522.814 204.506V208.784C522.814 210.08 523.053 211.199 523.53 212.142C524.018 213.085 524.706 213.812 525.592 214.324C526.479 214.835 527.53 215.091 528.746 215.091C529.553 215.091 530.291 214.977 530.962 214.75C531.632 214.523 532.206 214.182 532.683 213.727C533.161 213.273 533.524 212.716 533.774 212.057L540.49 212.5C540.149 214.114 539.45 215.523 538.393 216.727C537.348 217.92 535.996 218.852 534.337 219.523C532.689 220.182 530.786 220.511 528.626 220.511ZM557.314 220.511C554.621 220.511 552.303 219.966 550.359 218.875C548.428 217.773 546.939 216.216 545.893 214.205C544.848 212.182 544.325 209.79 544.325 207.028C544.325 204.335 544.848 201.972 545.893 199.938C546.939 197.903 548.411 196.318 550.308 195.182C552.217 194.045 554.456 193.477 557.024 193.477C558.751 193.477 560.359 193.756 561.848 194.312C563.348 194.858 564.655 195.682 565.768 196.784C566.893 197.886 567.768 199.273 568.393 200.943C569.018 202.602 569.331 204.545 569.331 206.773V208.767H547.223V204.267H562.496C562.496 203.222 562.268 202.295 561.814 201.489C561.359 200.682 560.729 200.051 559.922 199.597C559.126 199.131 558.2 198.898 557.143 198.898C556.041 198.898 555.064 199.153 554.212 199.665C553.371 200.165 552.712 200.841 552.234 201.693C551.757 202.534 551.513 203.472 551.501 204.506V208.784C551.501 210.08 551.74 211.199 552.217 212.142C552.706 213.085 553.393 213.812 554.28 214.324C555.166 214.835 556.217 215.091 557.433 215.091C558.24 215.091 558.979 214.977 559.649 214.75C560.32 214.523 560.893 214.182 561.371 213.727C561.848 213.273 562.212 212.716 562.462 212.057L569.178 212.5C568.837 214.114 568.138 215.523 567.081 216.727C566.036 217.92 564.683 218.852 563.024 219.523C561.376 220.182 559.473 220.511 557.314 220.511ZM574.07 220V193.818H581.109V198.386H581.382C581.859 196.761 582.661 195.534 583.786 194.705C584.911 193.864 586.206 193.443 587.672 193.443C588.036 193.443 588.428 193.466 588.848 193.511C589.268 193.557 589.638 193.619 589.956 193.699V200.142C589.615 200.04 589.143 199.949 588.541 199.869C587.939 199.79 587.388 199.75 586.888 199.75C585.82 199.75 584.865 199.983 584.024 200.449C583.195 200.903 582.536 201.54 582.047 202.358C581.57 203.176 581.331 204.119 581.331 205.188V220H574.07ZM593.71 220V193.818H600.972V220H593.71ZM597.358 190.443C596.278 190.443 595.352 190.085 594.58 189.369C593.818 188.642 593.438 187.773 593.438 186.761C593.438 185.761 593.818 184.903 594.58 184.188C595.352 183.46 596.278 183.097 597.358 183.097C598.438 183.097 599.358 183.46 600.119 184.188C600.892 184.903 601.278 185.761 601.278 186.761C601.278 187.773 600.892 188.642 600.119 189.369C599.358 190.085 598.438 190.443 597.358 190.443ZM614.05 204.864V220H606.788V193.818H613.709V198.438H614.016C614.595 196.915 615.567 195.71 616.93 194.824C618.294 193.926 619.947 193.477 621.891 193.477C623.709 193.477 625.294 193.875 626.646 194.67C627.999 195.466 629.05 196.602 629.8 198.08C630.55 199.545 630.925 201.295 630.925 203.33V220H623.663V204.625C623.675 203.023 623.266 201.773 622.436 200.875C621.607 199.966 620.464 199.511 619.01 199.511C618.033 199.511 617.169 199.722 616.419 200.142C615.68 200.562 615.101 201.176 614.68 201.983C614.271 202.778 614.061 203.739 614.05 204.864ZM648.443 230.364C646.091 230.364 644.074 230.04 642.392 229.392C640.722 228.756 639.392 227.886 638.403 226.784C637.415 225.682 636.773 224.443 636.477 223.068L643.193 222.165C643.398 222.688 643.722 223.176 644.165 223.631C644.608 224.085 645.193 224.449 645.92 224.722C646.659 225.006 647.557 225.148 648.614 225.148C650.193 225.148 651.494 224.761 652.517 223.989C653.551 223.227 654.068 221.949 654.068 220.153V215.364H653.761C653.443 216.091 652.966 216.778 652.33 217.426C651.693 218.074 650.875 218.602 649.875 219.011C648.875 219.42 647.682 219.625 646.295 219.625C644.33 219.625 642.54 219.17 640.926 218.261C639.324 217.341 638.045 215.937 637.091 214.051C636.148 212.153 635.676 209.756 635.676 206.858C635.676 203.892 636.159 201.415 637.125 199.426C638.091 197.437 639.375 195.949 640.977 194.96C642.591 193.972 644.358 193.477 646.278 193.477C647.744 193.477 648.972 193.727 649.96 194.227C650.949 194.716 651.744 195.33 652.347 196.068C652.96 196.795 653.432 197.511 653.761 198.216H654.034V193.818H661.244V220.256C661.244 222.483 660.699 224.347 659.608 225.847C658.517 227.347 657.006 228.472 655.074 229.222C653.153 229.983 650.943 230.364 648.443 230.364ZM648.597 214.17C649.767 214.17 650.756 213.881 651.562 213.301C652.381 212.71 653.006 211.869 653.438 210.778C653.881 209.676 654.102 208.358 654.102 206.824C654.102 205.29 653.886 203.96 653.455 202.835C653.023 201.699 652.398 200.818 651.58 200.193C650.761 199.568 649.767 199.256 648.597 199.256C647.403 199.256 646.398 199.58 645.58 200.227C644.761 200.864 644.142 201.75 643.722 202.886C643.301 204.023 643.091 205.335 643.091 206.824C643.091 208.335 643.301 209.642 643.722 210.744C644.153 211.835 644.773 212.682 645.58 213.284C646.398 213.875 647.403 214.17 648.597 214.17ZM678.064 220V214.682L690.49 203.176C691.547 202.153 692.433 201.233 693.149 200.415C693.876 199.597 694.428 198.795 694.803 198.011C695.178 197.216 695.365 196.358 695.365 195.438C695.365 194.415 695.132 193.534 694.666 192.795C694.2 192.045 693.564 191.472 692.757 191.074C691.95 190.665 691.036 190.46 690.013 190.46C688.945 190.46 688.013 190.676 687.217 191.108C686.422 191.54 685.808 192.159 685.376 192.966C684.945 193.773 684.729 194.733 684.729 195.847H677.723C677.723 193.562 678.24 191.58 679.274 189.898C680.308 188.216 681.757 186.915 683.621 185.994C685.484 185.074 687.632 184.614 690.064 184.614C692.564 184.614 694.74 185.057 696.592 185.943C698.456 186.818 699.905 188.034 700.939 189.591C701.973 191.148 702.49 192.932 702.49 194.943C702.49 196.261 702.229 197.562 701.706 198.847C701.195 200.131 700.28 201.557 698.962 203.125C697.643 204.682 695.786 206.551 693.388 208.733L688.291 213.727V213.966H702.95V220H678.064Z" fill="white"/>
<path d="M265.409 153.75V150.727H283.42V153.75H276.159V174H272.659V153.75H265.409ZM290.912 150.727V174H287.401V150.727H290.912ZM314.81 150.727V174H311.582L299.753 156.932H299.537V174H296.026V150.727H299.276L311.116 167.818H311.332V150.727H314.81ZM319.932 174V150.727H334.364V153.75H323.443V160.841H333.33V163.852H323.443V174H319.932ZM338.364 174V171.455L346.239 163.295C347.08 162.409 347.773 161.633 348.318 160.966C348.871 160.292 349.284 159.652 349.557 159.045C349.83 158.439 349.966 157.795 349.966 157.114C349.966 156.341 349.784 155.674 349.42 155.114C349.057 154.545 348.561 154.11 347.932 153.807C347.303 153.496 346.595 153.341 345.807 153.341C344.973 153.341 344.246 153.511 343.625 153.852C343.004 154.193 342.527 154.674 342.193 155.295C341.86 155.917 341.693 156.644 341.693 157.477H338.341C338.341 156.061 338.667 154.822 339.318 153.761C339.97 152.701 340.864 151.879 342 151.295C343.136 150.705 344.428 150.409 345.875 150.409C347.337 150.409 348.625 150.701 349.739 151.284C350.86 151.86 351.735 152.648 352.364 153.648C352.992 154.64 353.307 155.761 353.307 157.011C353.307 157.875 353.144 158.72 352.818 159.545C352.5 160.371 351.943 161.292 351.148 162.307C350.352 163.314 349.246 164.538 347.83 165.977L343.205 170.818V170.989H353.682V174H338.364ZM366.091 174.386C364.295 174.379 362.761 173.905 361.489 172.966C360.216 172.027 359.242 170.659 358.568 168.864C357.894 167.068 357.557 164.905 357.557 162.375C357.557 159.852 357.894 157.697 358.568 155.909C359.25 154.121 360.227 152.758 361.5 151.818C362.78 150.879 364.311 150.409 366.091 150.409C367.871 150.409 369.398 150.883 370.67 151.83C371.943 152.769 372.917 154.133 373.591 155.92C374.273 157.701 374.614 159.852 374.614 162.375C374.614 164.913 374.277 167.08 373.602 168.875C372.928 170.663 371.955 172.03 370.682 172.977C369.409 173.917 367.879 174.386 366.091 174.386ZM366.091 171.352C367.667 171.352 368.898 170.583 369.784 169.045C370.678 167.508 371.125 165.284 371.125 162.375C371.125 160.443 370.92 158.811 370.511 157.477C370.11 156.136 369.53 155.121 368.773 154.432C368.023 153.735 367.129 153.386 366.091 153.386C364.523 153.386 363.292 154.159 362.398 155.705C361.504 157.25 361.053 159.473 361.045 162.375C361.045 164.314 361.246 165.955 361.648 167.295C362.057 168.629 362.636 169.64 363.386 170.33C364.136 171.011 365.038 171.352 366.091 171.352ZM378.645 174V171.455L386.52 163.295C387.361 162.409 388.054 161.633 388.599 160.966C389.152 160.292 389.565 159.652 389.838 159.045C390.111 158.439 390.247 157.795 390.247 157.114C390.247 156.341 390.065 155.674 389.702 155.114C389.338 154.545 388.842 154.11 388.213 153.807C387.584 153.496 386.876 153.341 386.088 153.341C385.255 153.341 384.527 153.511 383.906 153.852C383.285 154.193 382.808 154.674 382.474 155.295C382.141 155.917 381.974 156.644 381.974 157.477H378.622C378.622 156.061 378.948 154.822 379.599 153.761C380.251 152.701 381.145 151.879 382.281 151.295C383.418 150.705 384.709 150.409 386.156 150.409C387.618 150.409 388.906 150.701 390.02 151.284C391.141 151.86 392.016 152.648 392.645 153.648C393.274 154.64 393.588 155.761 393.588 157.011C393.588 157.875 393.425 158.72 393.099 159.545C392.781 160.371 392.224 161.292 391.429 162.307C390.634 163.314 389.527 164.538 388.111 165.977L383.486 170.818V170.989H393.963V174H378.645ZM407.099 150.727V174H403.577V154.25H403.44L397.872 157.886V154.523L403.679 150.727H407.099Z" fill="white" fill-opacity="0.9"/>
<path d="M264 138H358" stroke="url(#paint0_linear_301_2)" stroke-width="2" stroke-linecap="round"/>
<rect x="425" y="130" width="90" height="44" rx="5" fill="url(#paint1_radial_301_2)"/>
<path d="M443.264 159V144.455H452.895V146.99H446.339V150.456H452.256V152.991H446.339V159H443.264ZM468.33 151.727C468.33 153.313 468.029 154.663 467.428 155.776C466.831 156.888 466.017 157.738 464.985 158.325C463.957 158.908 462.802 159.199 461.519 159.199C460.226 159.199 459.066 158.905 458.039 158.318C457.011 157.731 456.199 156.881 455.603 155.768C455.006 154.656 454.708 153.309 454.708 151.727C454.708 150.141 455.006 148.792 455.603 147.679C456.199 146.566 457.011 145.719 458.039 145.136C459.066 144.549 460.226 144.256 461.519 144.256C462.802 144.256 463.957 144.549 464.985 145.136C466.017 145.719 466.831 146.566 467.428 147.679C468.029 148.792 468.33 150.141 468.33 151.727ZM465.212 151.727C465.212 150.7 465.058 149.833 464.75 149.128C464.447 148.422 464.019 147.887 463.465 147.523C462.911 147.158 462.262 146.976 461.519 146.976C460.775 146.976 460.127 147.158 459.573 147.523C459.019 147.887 458.588 148.422 458.28 149.128C457.977 149.833 457.826 150.7 457.826 151.727C457.826 152.755 457.977 153.621 458.28 154.327C458.588 155.032 459.019 155.567 459.573 155.932C460.127 156.296 460.775 156.479 461.519 156.479C462.262 156.479 462.911 156.296 463.465 155.932C464.019 155.567 464.447 155.032 464.75 154.327C465.058 153.621 465.212 152.755 465.212 151.727ZM470.608 159V144.455H476.347C477.445 144.455 478.383 144.651 479.159 145.044C479.94 145.432 480.535 145.984 480.942 146.699C481.354 147.409 481.56 148.245 481.56 149.206C481.56 150.172 481.351 151.003 480.935 151.699C480.518 152.39 479.914 152.92 479.124 153.29C478.338 153.659 477.386 153.844 476.268 153.844H472.426V151.372H475.771C476.358 151.372 476.846 151.292 477.234 151.131C477.623 150.97 477.911 150.728 478.101 150.406C478.295 150.084 478.392 149.684 478.392 149.206C478.392 148.723 478.295 148.316 478.101 147.984C477.911 147.653 477.62 147.402 477.227 147.232C476.839 147.056 476.349 146.969 475.757 146.969H473.683V159H470.608ZM478.463 152.381L482.078 159H478.683L475.146 152.381H478.463ZM483.733 159V144.455H486.808V150.868H487L492.234 144.455H495.92L490.523 150.967L495.984 159H492.305L488.321 153.02L486.808 154.866V159H483.733Z" fill="white"/>
<path d="M372.39 139.713H374.089L374.943 140.812L375.783 141.79L377.367 143.776H375.502L374.412 142.437L373.854 141.643L372.39 139.713ZM377.51 138.273C377.51 139.304 377.315 140.181 376.924 140.904C376.536 141.627 376.007 142.18 375.336 142.561C374.668 142.94 373.917 143.129 373.083 143.129C372.243 143.129 371.489 142.938 370.821 142.557C370.153 142.175 369.625 141.623 369.237 140.9C368.849 140.176 368.656 139.301 368.656 138.273C368.656 137.242 368.849 136.365 369.237 135.641C369.625 134.918 370.153 134.367 370.821 133.989C371.489 133.607 372.243 133.416 373.083 133.416C373.917 133.416 374.668 133.607 375.336 133.989C376.007 134.367 376.536 134.918 376.924 135.641C377.315 136.365 377.51 137.242 377.51 138.273ZM375.483 138.273C375.483 137.605 375.383 137.042 375.183 136.583C374.986 136.125 374.708 135.777 374.348 135.54C373.988 135.303 373.566 135.184 373.083 135.184C372.6 135.184 372.178 135.303 371.818 135.54C371.458 135.777 371.178 136.125 370.978 136.583C370.781 137.042 370.682 137.605 370.682 138.273C370.682 138.941 370.781 139.504 370.978 139.962C371.178 140.421 371.458 140.769 371.818 141.006C372.178 141.243 372.6 141.361 373.083 141.361C373.566 141.361 373.988 141.243 374.348 141.006C374.708 140.769 374.986 140.421 375.183 139.962C375.383 139.504 375.483 138.941 375.483 138.273ZM380.763 143L378.058 133.545H380.242L381.807 140.115H381.885L383.612 133.545H385.481L387.203 140.129H387.286L388.851 133.545H391.035L388.33 143H386.382L384.581 136.819H384.507L382.712 143H380.763ZM394.104 133.545V143H392.105V133.545H394.104ZM395.748 143V133.545H399.479C400.193 133.545 400.802 133.673 401.307 133.929C401.815 134.181 402.201 134.54 402.465 135.004C402.733 135.466 402.867 136.009 402.867 136.634C402.867 137.262 402.732 137.802 402.461 138.254C402.19 138.704 401.798 139.048 401.284 139.288C400.773 139.528 400.154 139.648 399.428 139.648H396.93V138.042H399.105C399.486 138.042 399.803 137.99 400.056 137.885C400.308 137.78 400.496 137.623 400.619 137.414C400.745 137.205 400.808 136.945 400.808 136.634C400.808 136.32 400.745 136.055 400.619 135.84C400.496 135.624 400.306 135.461 400.051 135.35C399.799 135.237 399.48 135.18 399.095 135.18H397.747V143H395.748ZM400.854 138.697L403.204 143H400.997L398.698 138.697H400.854ZM406.279 133.545V143H404.28V133.545H406.279Z" fill="#69FF93"/>
<defs>
<linearGradient id="paint0_linear_301_2" x1="263.57" y1="138" x2="358" y2="138" gradientUnits="userSpaceOnUse">
<stop stop-color="#505050"/>
<stop offset="1" stop-color="#C1C1C1"/>
</linearGradient>
<radialGradient id="paint1_radial_301_2" cx="0" cy="0" r="1" gradientUnits="userSpaceOnUse" gradientTransform="translate(470 130) rotate(90) scale(44 90)">
<stop stop-color="#FF7373"/>
<stop offset="1" stop-color="#FF3E3E"/>
</radialGradient>
</defs>
</svg>
