<svg viewBox="0 0 208 97" fill="none" xmlns="http://www.w3.org/2000/svg">
    <path d="M14.4766 57.9062L21.2734 26.875H25.3281L27.5312 29.5234L20.2891 61H15.8125L14.4766 57.9062ZM12.6719 26.875L18.4141 58.1406L16.9375 61H11.7578L4.51562 26.875H12.6719ZM31.2578 57.9766L36.9531 26.875H45.0859L37.8438 61H32.6875L31.2578 57.9766ZM28.2578 26.875L35.2188 58.0938L33.8125 61H29.3359L21.9297 29.4766L24.2266 26.875H28.2578ZM59.4766 61.4688C57.4141 61.4688 55.5703 61.1484 53.9453 60.5078C52.3203 59.8516 50.9453 58.9531 49.8203 57.8125C48.7109 56.6719 47.8594 55.3594 47.2656 53.875C46.6875 52.3906 46.3984 50.8203 46.3984 49.1641V48.2734C46.3984 46.4141 46.6562 44.6953 47.1719 43.1172C47.6875 41.5234 48.4531 40.1328 49.4688 38.9453C50.4844 37.7578 51.7578 36.8359 53.2891 36.1797C54.8203 35.5078 56.6016 35.1719 58.6328 35.1719C60.4297 35.1719 62.0391 35.4609 63.4609 36.0391C64.8828 36.6172 66.0859 37.4453 67.0703 38.5234C68.0703 39.6016 68.8281 40.9062 69.3438 42.4375C69.875 43.9688 70.1406 45.6875 70.1406 47.5938V50.8047H49.4219V45.8594H62.4297V45.25C62.4453 44.4062 62.2969 43.6875 61.9844 43.0938C61.6875 42.5 61.25 42.0469 60.6719 41.7344C60.0938 41.4219 59.3906 41.2656 58.5625 41.2656C57.7031 41.2656 56.9922 41.4531 56.4297 41.8281C55.8828 42.2031 55.4531 42.7188 55.1406 43.375C54.8438 44.0156 54.6328 44.7578 54.5078 45.6016C54.3828 46.4453 54.3203 47.3359 54.3203 48.2734V49.1641C54.3203 50.1016 54.4453 50.9531 54.6953 51.7188C54.9609 52.4844 55.3359 53.1406 55.8203 53.6875C56.3203 54.2188 56.9141 54.6328 57.6016 54.9297C58.3047 55.2266 59.1016 55.375 59.9922 55.375C61.0703 55.375 62.1328 55.1719 63.1797 54.7656C64.2266 54.3594 65.125 53.6875 65.875 52.75L69.4609 57.0156C68.9453 57.75 68.2109 58.4609 67.2578 59.1484C66.3203 59.8359 65.1953 60.3984 63.8828 60.8359C62.5703 61.2578 61.1016 61.4688 59.4766 61.4688ZM73.4219 25H81.3203V54.7656L80.5 61H73.4219V25ZM96.8828 48.0391V48.5312C96.8828 50.4531 96.6875 52.2031 96.2969 53.7812C95.9062 55.3594 95.3047 56.7266 94.4922 57.8828C93.6797 59.0234 92.6562 59.9062 91.4219 60.5312C90.1875 61.1562 88.7266 61.4688 87.0391 61.4688C85.5078 61.4688 84.1953 61.1406 83.1016 60.4844C82.0078 59.8125 81.0938 58.8906 80.3594 57.7188C79.625 56.5312 79.0312 55.1641 78.5781 53.6172C78.125 52.0547 77.7656 50.3828 77.5 48.6016V48.0156C77.7656 46.25 78.125 44.5938 78.5781 43.0469C79.0312 41.4844 79.625 40.1172 80.3594 38.9453C81.0938 37.7578 82 36.8359 83.0781 36.1797C84.1719 35.5078 85.4766 35.1719 86.9922 35.1719C88.6953 35.1719 90.1641 35.4922 91.3984 36.1328C92.6484 36.7734 93.6797 37.6719 94.4922 38.8281C95.3047 39.9844 95.9062 41.3438 96.2969 42.9062C96.6875 44.4688 96.8828 46.1797 96.8828 48.0391ZM88.9844 48.5312V48.0391C88.9844 47.1172 88.9297 46.25 88.8203 45.4375C88.7109 44.625 88.5156 43.9062 88.2344 43.2812C87.9531 42.6562 87.5547 42.1641 87.0391 41.8047C86.5234 41.4453 85.8516 41.2656 85.0234 41.2656C84.1797 41.2656 83.4688 41.4062 82.8906 41.6875C82.3281 41.9688 81.875 42.375 81.5312 42.9062C81.2031 43.4219 80.9688 44.0625 80.8281 44.8281C80.6875 45.5781 80.625 46.4297 80.6406 47.3828V49.2344C80.6094 50.5312 80.7266 51.6406 80.9922 52.5625C81.2578 53.4844 81.7188 54.1875 82.375 54.6719C83.0312 55.1562 83.9297 55.3984 85.0703 55.3984C85.9141 55.3984 86.5938 55.2344 87.1094 54.9062C87.6406 54.5781 88.0391 54.1094 88.3047 53.5C88.5703 52.8906 88.75 52.1641 88.8438 51.3203C88.9375 50.4766 88.9844 49.5469 88.9844 48.5312ZM124.258 54.6719V61H106.07V54.6719H124.258ZM109 26.875V61H100.773V26.875H109ZM121.914 40.4219V46.5391H106.07V40.4219H121.914ZM124.328 26.875V33.2266H106.07V26.875H124.328ZM135.016 41.0547V61H127.117V35.6406H134.523L135.016 41.0547ZM134.078 47.4531L132.227 47.5C132.227 45.5625 132.461 43.8359 132.93 42.3203C133.398 40.7891 134.062 39.4922 134.922 38.4297C135.781 37.3672 136.805 36.5625 137.992 36.0156C139.195 35.4531 140.531 35.1719 142 35.1719C143.172 35.1719 144.242 35.3438 145.211 35.6875C146.195 36.0312 147.039 36.5859 147.742 37.3516C148.461 38.1172 149.008 39.1328 149.383 40.3984C149.773 41.6484 149.969 43.1953 149.969 45.0391V61H142.023V45.0156C142.023 44 141.883 43.2266 141.602 42.6953C141.32 42.1484 140.914 41.7734 140.383 41.5703C139.852 41.3672 139.203 41.2656 138.438 41.2656C137.625 41.2656 136.938 41.4219 136.375 41.7344C135.812 42.0469 135.359 42.4844 135.016 43.0469C134.688 43.5938 134.445 44.2422 134.289 44.9922C134.148 45.7422 134.078 46.5625 134.078 47.4531ZM170.289 35.6406H177.461V60.0156C177.461 62.3594 176.922 64.3438 175.844 65.9688C174.766 67.6094 173.258 68.8516 171.32 69.6953C169.398 70.5547 167.148 70.9844 164.57 70.9844C163.43 70.9844 162.266 70.8359 161.078 70.5391C159.891 70.2578 158.781 69.8359 157.75 69.2734C156.719 68.7109 155.852 68.0156 155.148 67.1875L158.453 62.5469C159.094 63.2656 159.898 63.875 160.867 64.375C161.836 64.8906 162.977 65.1484 164.289 65.1484C165.43 65.1484 166.383 64.9453 167.148 64.5391C167.93 64.1328 168.523 63.5391 168.93 62.7578C169.336 61.9922 169.539 61.0625 169.539 59.9688V41.6406L170.289 35.6406ZM153.438 48.625V48.1328C153.438 46.2109 153.672 44.4609 154.141 42.8828C154.625 41.2891 155.312 39.9219 156.203 38.7812C157.109 37.625 158.203 36.7344 159.484 36.1094C160.766 35.4844 162.211 35.1719 163.82 35.1719C165.555 35.1719 166.977 35.5078 168.086 36.1797C169.211 36.8359 170.109 37.7578 170.781 38.9453C171.469 40.1328 172 41.5234 172.375 43.1172C172.766 44.6953 173.094 46.3984 173.359 48.2266V48.8125C173.094 50.5312 172.727 52.1562 172.258 53.6875C171.805 55.2031 171.211 56.5469 170.477 57.7188C169.742 58.8906 168.82 59.8125 167.711 60.4844C166.617 61.1406 165.305 61.4688 163.773 61.4688C162.18 61.4688 160.742 61.1484 159.461 60.5078C158.195 59.8672 157.109 58.9688 156.203 57.8125C155.312 56.6562 154.625 55.2969 154.141 53.7344C153.672 52.1719 153.438 50.4688 153.438 48.625ZM161.336 48.1328V48.625C161.336 49.5781 161.422 50.4609 161.594 51.2734C161.781 52.0859 162.062 52.8047 162.438 53.4297C162.812 54.0391 163.273 54.5156 163.82 54.8594C164.383 55.2031 165.039 55.375 165.789 55.375C166.93 55.375 167.852 55.1328 168.555 54.6484C169.258 54.1641 169.766 53.4766 170.078 52.5859C170.391 51.6953 170.523 50.6484 170.477 49.4453V47.5938C170.508 46.5625 170.438 45.6562 170.266 44.875C170.094 44.0781 169.82 43.4141 169.445 42.8828C169.086 42.3516 168.602 41.9531 167.992 41.6875C167.398 41.4062 166.68 41.2656 165.836 41.2656C165.102 41.2656 164.453 41.4375 163.891 41.7812C163.328 42.125 162.859 42.6094 162.484 43.2344C162.109 43.8438 161.82 44.5703 161.617 45.4141C161.43 46.2422 161.336 47.1484 161.336 48.1328ZM199.375 26.875V61H191.477V35.7812L183.695 38.0547V32.0547L198.648 26.875H199.375Z" fill="#E20022"/>
    <path d="M6.56543 4.20312V17H4.37695V4.20312H6.56543ZM10.582 4.20312V5.96094H0.395508V4.20312H10.582ZM14.625 4.20312V17H12.4189V4.20312H14.625ZM27.5186 4.20312V17H25.3125L19.5732 7.83301V17H17.3672V4.20312H19.5732L25.3301 13.3877V4.20312H27.5186ZM32.3525 4.20312V17H30.1465V4.20312H32.3525ZM37.5732 9.80176V11.5508H31.79V9.80176H37.5732ZM38.3027 4.20312V5.96094H31.79V4.20312H38.3027ZM48.3047 15.3125V17H39.7266V15.5498L43.8926 11.0059C44.3496 10.4902 44.71 10.0449 44.9736 9.66992C45.2373 9.29492 45.4219 8.95801 45.5273 8.65918C45.6387 8.35449 45.6943 8.05859 45.6943 7.77148C45.6943 7.36719 45.6182 7.0127 45.4658 6.70801C45.3193 6.39746 45.1025 6.1543 44.8154 5.97852C44.5283 5.79687 44.1797 5.70605 43.7695 5.70605C43.2949 5.70605 42.8965 5.80859 42.5742 6.01367C42.252 6.21875 42.0088 6.50293 41.8447 6.86621C41.6807 7.22363 41.5986 7.63379 41.5986 8.09668H39.4805C39.4805 7.35254 39.6504 6.67285 39.9902 6.05762C40.3301 5.43652 40.8223 4.94434 41.4668 4.58105C42.1113 4.21191 42.8877 4.02734 43.7959 4.02734C44.6514 4.02734 45.3779 4.1709 45.9756 4.45801C46.5732 4.74512 47.0273 5.15234 47.3379 5.67969C47.6543 6.20703 47.8125 6.83105 47.8125 7.55176C47.8125 7.9502 47.748 8.3457 47.6191 8.73828C47.4902 9.13086 47.3057 9.52344 47.0654 9.91602C46.8311 10.3027 46.5527 10.6924 46.2305 11.085C45.9082 11.4717 45.5537 11.8643 45.167 12.2627L42.3984 15.3125H48.3047ZM58.2979 9.5293V11.6211C58.2979 12.623 58.1982 13.4785 57.999 14.1875C57.8057 14.8906 57.5244 15.4619 57.1553 15.9014C56.7861 16.3408 56.3438 16.6631 55.8281 16.8682C55.3184 17.0732 54.7471 17.1758 54.1143 17.1758C53.6104 17.1758 53.1416 17.1113 52.708 16.9824C52.2803 16.8535 51.8936 16.6514 51.5479 16.376C51.2021 16.1006 50.9062 15.7461 50.6602 15.3125C50.4199 14.873 50.2324 14.3486 50.0977 13.7393C49.9688 13.1299 49.9043 12.4238 49.9043 11.6211V9.5293C49.9043 8.52148 50.0039 7.67188 50.2031 6.98047C50.4023 6.2832 50.6865 5.71777 51.0557 5.28418C51.4248 4.84473 51.8643 4.52539 52.374 4.32617C52.8896 4.12695 53.4639 4.02734 54.0967 4.02734C54.6064 4.02734 55.0752 4.0918 55.5029 4.2207C55.9365 4.34375 56.3232 4.54004 56.6631 4.80957C57.0088 5.0791 57.3018 5.43066 57.542 5.86426C57.7881 6.29199 57.9756 6.81055 58.1045 7.41992C58.2334 8.02344 58.2979 8.72656 58.2979 9.5293ZM56.1797 11.9199V9.21289C56.1797 8.70312 56.1504 8.25488 56.0918 7.86816C56.0332 7.47559 55.9453 7.14453 55.8281 6.875C55.7168 6.59961 55.5762 6.37695 55.4062 6.20703C55.2363 6.03125 55.043 5.90527 54.8262 5.8291C54.6094 5.74707 54.3662 5.70605 54.0967 5.70605C53.7686 5.70605 53.4756 5.77051 53.2178 5.89941C52.96 6.02246 52.7432 6.22168 52.5674 6.49707C52.3916 6.77246 52.2568 7.13574 52.1631 7.58691C52.0752 8.03223 52.0312 8.57422 52.0312 9.21289V11.9199C52.0312 12.4355 52.0605 12.8896 52.1191 13.2822C52.1777 13.6748 52.2656 14.0117 52.3828 14.293C52.5 14.5684 52.6406 14.7969 52.8047 14.9785C52.9746 15.1543 53.168 15.2832 53.3848 15.3652C53.6074 15.4473 53.8506 15.4883 54.1143 15.4883C54.4482 15.4883 54.7441 15.4238 55.002 15.2949C55.2598 15.166 55.4766 14.9609 55.6523 14.6797C55.8281 14.3926 55.96 14.0205 56.0479 13.5635C56.1357 13.1064 56.1797 12.5586 56.1797 11.9199ZM68.7656 15.3125V17H60.1875V15.5498L64.3535 11.0059C64.8105 10.4902 65.1709 10.0449 65.4346 9.66992C65.6982 9.29492 65.8828 8.95801 65.9883 8.65918C66.0996 8.35449 66.1553 8.05859 66.1553 7.77148C66.1553 7.36719 66.0791 7.0127 65.9268 6.70801C65.7803 6.39746 65.5635 6.1543 65.2764 5.97852C64.9893 5.79687 64.6406 5.70605 64.2305 5.70605C63.7559 5.70605 63.3574 5.80859 63.0352 6.01367C62.7129 6.21875 62.4697 6.50293 62.3057 6.86621C62.1416 7.22363 62.0596 7.63379 62.0596 8.09668H59.9414C59.9414 7.35254 60.1113 6.67285 60.4512 6.05762C60.791 5.43652 61.2832 4.94434 61.9277 4.58105C62.5723 4.21191 63.3486 4.02734 64.2568 4.02734C65.1123 4.02734 65.8389 4.1709 66.4365 4.45801C67.0342 4.74512 67.4883 5.15234 67.7988 5.67969C68.1152 6.20703 68.2734 6.83105 68.2734 7.55176C68.2734 7.9502 68.209 8.3457 68.0801 8.73828C67.9512 9.13086 67.7666 9.52344 67.5264 9.91602C67.292 10.3027 67.0137 10.6924 66.6914 11.085C66.3691 11.4717 66.0146 11.8643 65.6279 12.2627L62.8594 15.3125H68.7656ZM76.2012 4.15918V17H74.083V6.67285L70.9453 7.73633V5.9873L75.9463 4.15918H76.2012Z" fill="#717E84"/>
    <path d="M63.8594 88.834H66.0566C65.9863 89.6719 65.752 90.4189 65.3535 91.0752C64.9551 91.7256 64.3955 92.2383 63.6748 92.6133C62.9541 92.9883 62.0781 93.1758 61.0469 93.1758C60.2559 93.1758 59.5439 93.0352 58.9111 92.7539C58.2783 92.4668 57.7363 92.0625 57.2852 91.541C56.834 91.0137 56.4883 90.3779 56.248 89.6338C56.0137 88.8896 55.8965 88.0576 55.8965 87.1377V86.0742C55.8965 85.1543 56.0166 84.3223 56.2568 83.5781C56.5029 82.834 56.8545 82.1982 57.3115 81.6709C57.7686 81.1377 58.3164 80.7305 58.9551 80.4492C59.5996 80.168 60.3232 80.0273 61.126 80.0273C62.1455 80.0273 63.0068 80.2148 63.71 80.5898C64.4131 80.9648 64.958 81.4834 65.3447 82.1455C65.7373 82.8076 65.9775 83.5664 66.0654 84.4219H63.8682C63.8096 83.8711 63.6807 83.3994 63.4814 83.0068C63.2881 82.6143 63.001 82.3154 62.6201 82.1104C62.2393 81.8994 61.7412 81.7939 61.126 81.7939C60.6221 81.7939 60.1826 81.8877 59.8076 82.0752C59.4326 82.2627 59.1191 82.5381 58.8672 82.9014C58.6152 83.2646 58.4248 83.7129 58.2959 84.2461C58.1729 84.7734 58.1113 85.377 58.1113 86.0566V87.1377C58.1113 87.7822 58.167 88.3682 58.2783 88.8955C58.3955 89.417 58.5713 89.8652 58.8057 90.2402C59.0459 90.6152 59.3506 90.9053 59.7197 91.1104C60.0889 91.3154 60.5312 91.418 61.0469 91.418C61.6738 91.418 62.1807 91.3184 62.5674 91.1191C62.96 90.9199 63.2559 90.6299 63.4551 90.249C63.6602 89.8623 63.7949 89.3906 63.8594 88.834ZM69.9414 79.5V93H67.832V79.5H69.9414ZM69.5723 87.8936L68.8867 87.8848C68.8926 87.2285 68.9834 86.6221 69.1592 86.0654C69.3408 85.5088 69.5928 85.0254 69.915 84.6152C70.2432 84.1992 70.6357 83.8799 71.0928 83.6572C71.5498 83.4287 72.0566 83.3145 72.6133 83.3145C73.082 83.3145 73.5039 83.3789 73.8789 83.5078C74.2598 83.6367 74.5879 83.8447 74.8633 84.1318C75.1387 84.4131 75.3467 84.7822 75.4873 85.2393C75.6338 85.6904 75.707 86.2412 75.707 86.8916V93H73.5801V86.874C73.5801 86.417 73.5127 86.0537 73.3779 85.7842C73.249 85.5146 73.0586 85.3213 72.8066 85.2041C72.5547 85.0811 72.2471 85.0195 71.8838 85.0195C71.5029 85.0195 71.166 85.0957 70.873 85.248C70.5859 85.4004 70.3457 85.6084 70.1523 85.8721C69.959 86.1357 69.8125 86.4404 69.7129 86.7861C69.6191 87.1318 69.5723 87.501 69.5723 87.8936ZM79.9785 85.3008V93H77.8604V83.4902H79.8818L79.9785 85.3008ZM82.8877 83.4287L82.8701 85.3975C82.7412 85.374 82.6006 85.3564 82.4482 85.3447C82.3018 85.333 82.1553 85.3271 82.0088 85.3271C81.6455 85.3271 81.3262 85.3799 81.0508 85.4854C80.7754 85.585 80.5439 85.7314 80.3564 85.9248C80.1748 86.1123 80.0342 86.3408 79.9346 86.6104C79.835 86.8799 79.7764 87.1816 79.7588 87.5156L79.2754 87.5508C79.2754 86.9531 79.334 86.3994 79.4512 85.8896C79.5684 85.3799 79.7441 84.9316 79.9785 84.5449C80.2188 84.1582 80.5176 83.8564 80.875 83.6396C81.2383 83.4229 81.6572 83.3145 82.1318 83.3145C82.2607 83.3145 82.3984 83.3262 82.5449 83.3496C82.6973 83.373 82.8115 83.3994 82.8877 83.4287ZM86.4824 83.4902V93H84.3555V83.4902H86.4824ZM84.2148 80.9941C84.2148 80.6719 84.3203 80.4053 84.5312 80.1943C84.748 79.9775 85.0469 79.8691 85.4277 79.8691C85.8027 79.8691 86.0986 79.9775 86.3154 80.1943C86.5322 80.4053 86.6406 80.6719 86.6406 80.9941C86.6406 81.3105 86.5322 81.5742 86.3154 81.7852C86.0986 81.9961 85.8027 82.1016 85.4277 82.1016C85.0469 82.1016 84.748 81.9961 84.5312 81.7852C84.3203 81.5742 84.2148 81.3105 84.2148 80.9941ZM94.1377 90.4248C94.1377 90.2139 94.085 90.0234 93.9795 89.8535C93.874 89.6777 93.6719 89.5195 93.373 89.3789C93.0801 89.2383 92.6465 89.1094 92.0723 88.9922C91.5684 88.8809 91.1055 88.749 90.6836 88.5967C90.2676 88.4385 89.9102 88.248 89.6113 88.0254C89.3125 87.8027 89.0811 87.5391 88.917 87.2344C88.7529 86.9297 88.6709 86.5781 88.6709 86.1797C88.6709 85.793 88.7559 85.4268 88.9258 85.0811C89.0957 84.7354 89.3389 84.4307 89.6553 84.167C89.9717 83.9033 90.3555 83.6953 90.8066 83.543C91.2637 83.3906 91.7734 83.3145 92.3359 83.3145C93.1328 83.3145 93.8154 83.4492 94.3838 83.7188C94.958 83.9824 95.3975 84.3428 95.7021 84.7998C96.0068 85.251 96.1592 85.7607 96.1592 86.3291H94.041C94.041 86.0771 93.9766 85.8428 93.8477 85.626C93.7246 85.4033 93.5371 85.2246 93.2852 85.0898C93.0332 84.9492 92.7168 84.8789 92.3359 84.8789C91.9727 84.8789 91.6709 84.9375 91.4307 85.0547C91.1963 85.166 91.0205 85.3125 90.9033 85.4941C90.792 85.6758 90.7363 85.875 90.7363 86.0918C90.7363 86.25 90.7656 86.3936 90.8242 86.5225C90.8887 86.6455 90.9941 86.7598 91.1406 86.8652C91.2871 86.9648 91.4863 87.0586 91.7383 87.1465C91.9961 87.2344 92.3184 87.3193 92.7051 87.4014C93.4316 87.5537 94.0557 87.75 94.5771 87.9902C95.1045 88.2246 95.5088 88.5293 95.79 88.9043C96.0713 89.2734 96.2119 89.7422 96.2119 90.3105C96.2119 90.7324 96.1211 91.1191 95.9395 91.4707C95.7637 91.8164 95.5059 92.1182 95.166 92.376C94.8262 92.6279 94.4189 92.8242 93.9443 92.9648C93.4756 93.1055 92.9482 93.1758 92.3623 93.1758C91.501 93.1758 90.7715 93.0234 90.1738 92.7188C89.5762 92.4082 89.1221 92.0127 88.8115 91.5322C88.5068 91.0459 88.3545 90.542 88.3545 90.0205H90.4023C90.4258 90.4131 90.5342 90.7266 90.7275 90.9609C90.9268 91.1895 91.1729 91.3564 91.4658 91.4619C91.7646 91.5615 92.0723 91.6113 92.3887 91.6113C92.7695 91.6113 93.0889 91.5615 93.3467 91.4619C93.6045 91.3564 93.8008 91.2158 93.9355 91.04C94.0703 90.8584 94.1377 90.6533 94.1377 90.4248ZM102.426 83.4902V85.0371H97.0645V83.4902H102.426ZM98.6113 81.1611H100.729V90.3721C100.729 90.665 100.771 90.8906 100.853 91.0488C100.94 91.2012 101.061 91.3037 101.213 91.3564C101.365 91.4092 101.544 91.4355 101.749 91.4355C101.896 91.4355 102.036 91.4268 102.171 91.4092C102.306 91.3916 102.414 91.374 102.496 91.3564L102.505 92.9736C102.329 93.0264 102.124 93.0732 101.89 93.1143C101.661 93.1553 101.397 93.1758 101.099 93.1758C100.612 93.1758 100.182 93.0908 99.8066 92.9209C99.4316 92.7451 99.1387 92.4609 98.9277 92.0684C98.7168 91.6758 98.6113 91.1543 98.6113 90.5039V81.1611ZM103.445 88.3506V88.1484C103.445 87.4629 103.545 86.8271 103.744 86.2412C103.943 85.6494 104.23 85.1367 104.605 84.7031C104.986 84.2637 105.449 83.9238 105.994 83.6836C106.545 83.4375 107.166 83.3145 107.857 83.3145C108.555 83.3145 109.176 83.4375 109.721 83.6836C110.271 83.9238 110.737 84.2637 111.118 84.7031C111.499 85.1367 111.789 85.6494 111.988 86.2412C112.188 86.8271 112.287 87.4629 112.287 88.1484V88.3506C112.287 89.0361 112.188 89.6719 111.988 90.2578C111.789 90.8438 111.499 91.3564 111.118 91.7959C110.737 92.2295 110.274 92.5693 109.729 92.8154C109.185 93.0557 108.566 93.1758 107.875 93.1758C107.178 93.1758 106.554 93.0557 106.003 92.8154C105.458 92.5693 104.995 92.2295 104.614 91.7959C104.233 91.3564 103.943 90.8438 103.744 90.2578C103.545 89.6719 103.445 89.0361 103.445 88.3506ZM105.563 88.1484V88.3506C105.563 88.7783 105.607 89.1826 105.695 89.5635C105.783 89.9443 105.921 90.2783 106.108 90.5654C106.296 90.8525 106.536 91.0781 106.829 91.2422C107.122 91.4062 107.471 91.4883 107.875 91.4883C108.268 91.4883 108.607 91.4062 108.895 91.2422C109.188 91.0781 109.428 90.8525 109.615 90.5654C109.803 90.2783 109.94 89.9443 110.028 89.5635C110.122 89.1826 110.169 88.7783 110.169 88.3506V88.1484C110.169 87.7266 110.122 87.3281 110.028 86.9531C109.94 86.5723 109.8 86.2354 109.606 85.9424C109.419 85.6494 109.179 85.4209 108.886 85.2568C108.599 85.0869 108.256 85.002 107.857 85.002C107.459 85.002 107.113 85.0869 106.82 85.2568C106.533 85.4209 106.296 85.6494 106.108 85.9424C105.921 86.2354 105.783 86.5723 105.695 86.9531C105.607 87.3281 105.563 87.7266 105.563 88.1484ZM116.189 85.3184V96.6562H114.071V83.4902H116.022L116.189 85.3184ZM122.386 88.1572V88.3418C122.386 89.0332 122.304 89.6748 122.14 90.2666C121.981 90.8525 121.744 91.3652 121.428 91.8047C121.117 92.2383 120.733 92.5752 120.276 92.8154C119.819 93.0557 119.292 93.1758 118.694 93.1758C118.103 93.1758 117.584 93.0674 117.139 92.8506C116.699 92.6279 116.327 92.3145 116.022 91.9102C115.718 91.5059 115.472 91.0312 115.284 90.4863C115.103 89.9355 114.974 89.332 114.897 88.6758V87.9639C114.974 87.2666 115.103 86.6338 115.284 86.0654C115.472 85.4971 115.718 85.0078 116.022 84.5977C116.327 84.1875 116.699 83.8711 117.139 83.6484C117.578 83.4258 118.091 83.3145 118.677 83.3145C119.274 83.3145 119.805 83.4316 120.268 83.666C120.73 83.8945 121.12 84.2227 121.437 84.6504C121.753 85.0723 121.99 85.582 122.148 86.1797C122.307 86.7715 122.386 87.4307 122.386 88.1572ZM120.268 88.3418V88.1572C120.268 87.7178 120.227 87.3105 120.145 86.9355C120.062 86.5547 119.934 86.2207 119.758 85.9336C119.582 85.6465 119.356 85.4238 119.081 85.2656C118.812 85.1016 118.486 85.0195 118.105 85.0195C117.73 85.0195 117.408 85.084 117.139 85.2129C116.869 85.3359 116.644 85.5088 116.462 85.7314C116.28 85.9541 116.14 86.2148 116.04 86.5137C115.94 86.8066 115.87 87.126 115.829 87.4717V89.1768C115.899 89.5986 116.02 89.9854 116.189 90.3369C116.359 90.6885 116.6 90.9697 116.91 91.1807C117.227 91.3857 117.631 91.4883 118.123 91.4883C118.504 91.4883 118.829 91.4062 119.099 91.2422C119.368 91.0781 119.588 90.8525 119.758 90.5654C119.934 90.2725 120.062 89.9355 120.145 89.5547C120.227 89.1738 120.268 88.7695 120.268 88.3418ZM126.279 79.5V93H124.17V79.5H126.279ZM125.91 87.8936L125.225 87.8848C125.23 87.2285 125.321 86.6221 125.497 86.0654C125.679 85.5088 125.931 85.0254 126.253 84.6152C126.581 84.1992 126.974 83.8799 127.431 83.6572C127.888 83.4287 128.395 83.3145 128.951 83.3145C129.42 83.3145 129.842 83.3789 130.217 83.5078C130.598 83.6367 130.926 83.8447 131.201 84.1318C131.477 84.4131 131.685 84.7822 131.825 85.2393C131.972 85.6904 132.045 86.2412 132.045 86.8916V93H129.918V86.874C129.918 86.417 129.851 86.0537 129.716 85.7842C129.587 85.5146 129.396 85.3213 129.145 85.2041C128.893 85.0811 128.585 85.0195 128.222 85.0195C127.841 85.0195 127.504 85.0957 127.211 85.248C126.924 85.4004 126.684 85.6084 126.49 85.8721C126.297 86.1357 126.15 86.4404 126.051 86.7861C125.957 87.1318 125.91 87.501 125.91 87.8936ZM147.338 85.5469V87.2959H140.544V85.5469H147.338ZM141.089 80.2031V93H138.883V80.2031H141.089ZM149.034 80.2031V93H146.837V80.2031H149.034ZM156.812 91.0928V86.5576C156.812 86.2178 156.751 85.9248 156.628 85.6787C156.505 85.4326 156.317 85.2422 156.065 85.1074C155.819 84.9727 155.509 84.9053 155.134 84.9053C154.788 84.9053 154.489 84.9639 154.237 85.0811C153.985 85.1982 153.789 85.3564 153.648 85.5557C153.508 85.7549 153.438 85.9805 153.438 86.2324H151.328C151.328 85.8574 151.419 85.4941 151.601 85.1426C151.782 84.791 152.046 84.4775 152.392 84.2021C152.737 83.9268 153.15 83.71 153.631 83.5518C154.111 83.3936 154.65 83.3145 155.248 83.3145C155.963 83.3145 156.596 83.4346 157.146 83.6748C157.703 83.915 158.14 84.2783 158.456 84.7646C158.778 85.2451 158.939 85.8486 158.939 86.5752V90.8027C158.939 91.2363 158.969 91.626 159.027 91.9717C159.092 92.3115 159.183 92.6074 159.3 92.8594V93H157.129C157.029 92.7715 156.95 92.4814 156.892 92.1299C156.839 91.7725 156.812 91.4268 156.812 91.0928ZM157.12 87.2168L157.138 88.5264H155.617C155.225 88.5264 154.879 88.5645 154.58 88.6406C154.281 88.7109 154.032 88.8164 153.833 88.957C153.634 89.0977 153.484 89.2676 153.385 89.4668C153.285 89.666 153.235 89.8916 153.235 90.1436C153.235 90.3955 153.294 90.627 153.411 90.8379C153.528 91.043 153.698 91.2041 153.921 91.3213C154.149 91.4385 154.425 91.4971 154.747 91.4971C155.181 91.4971 155.559 91.4092 155.881 91.2334C156.209 91.0518 156.467 90.832 156.654 90.5742C156.842 90.3105 156.941 90.0615 156.953 89.8271L157.639 90.7676C157.568 91.0078 157.448 91.2656 157.278 91.541C157.108 91.8164 156.886 92.0801 156.61 92.332C156.341 92.5781 156.016 92.7803 155.635 92.9385C155.26 93.0967 154.826 93.1758 154.334 93.1758C153.713 93.1758 153.159 93.0527 152.673 92.8066C152.187 92.5547 151.806 92.2178 151.53 91.7959C151.255 91.3682 151.117 90.8848 151.117 90.3457C151.117 89.8418 151.211 89.3965 151.398 89.0098C151.592 88.6172 151.873 88.2891 152.242 88.0254C152.617 87.7617 153.074 87.5625 153.613 87.4277C154.152 87.2871 154.768 87.2168 155.459 87.2168H157.12ZM152.207 80.9678C152.207 80.6807 152.307 80.4404 152.506 80.2471C152.705 80.0479 152.969 79.9482 153.297 79.9482C153.631 79.9482 153.897 80.0479 154.097 80.2471C154.296 80.4404 154.396 80.6807 154.396 80.9678C154.396 81.249 154.296 81.4893 154.097 81.6885C153.897 81.8818 153.631 81.9785 153.297 81.9785C152.969 81.9785 152.705 81.8818 152.506 81.6885C152.307 81.4893 152.207 81.249 152.207 80.9678ZM156.276 80.9766C156.276 80.6895 156.376 80.4492 156.575 80.2559C156.774 80.0566 157.041 79.957 157.375 79.957C157.703 79.957 157.967 80.0566 158.166 80.2559C158.371 80.4492 158.474 80.6895 158.474 80.9766C158.474 81.2578 158.371 81.498 158.166 81.6973C157.967 81.8906 157.703 81.9873 157.375 81.9873C157.041 81.9873 156.774 81.8906 156.575 81.6973C156.376 81.498 156.276 81.2578 156.276 80.9766ZM164.02 93H161.901V82.5762C161.901 81.8672 162.033 81.2725 162.297 80.792C162.566 80.3057 162.95 79.9395 163.448 79.6934C163.946 79.4414 164.535 79.3154 165.215 79.3154C165.426 79.3154 165.634 79.3301 165.839 79.3594C166.044 79.3828 166.243 79.4209 166.437 79.4736L166.384 81.1084C166.267 81.0791 166.138 81.0586 165.997 81.0469C165.862 81.0352 165.716 81.0293 165.558 81.0293C165.235 81.0293 164.957 81.0908 164.723 81.2139C164.494 81.3311 164.318 81.5039 164.195 81.7324C164.078 81.9609 164.02 82.2422 164.02 82.5762V93ZM165.979 83.4902V85.0371H160.442V83.4902H165.979ZM169.618 85.5205V93H167.5V83.4902H169.495L169.618 85.5205ZM169.24 87.8936L168.555 87.8848C168.561 87.2109 168.654 86.5928 168.836 86.0303C169.023 85.4678 169.281 84.9844 169.609 84.5801C169.943 84.1758 170.342 83.8652 170.805 83.6484C171.268 83.4258 171.783 83.3145 172.352 83.3145C172.809 83.3145 173.222 83.3789 173.591 83.5078C173.966 83.6309 174.285 83.833 174.549 84.1143C174.818 84.3955 175.023 84.7617 175.164 85.2129C175.305 85.6582 175.375 86.2061 175.375 86.8564V93H173.248V86.8477C173.248 86.3906 173.181 86.0303 173.046 85.7666C172.917 85.4971 172.727 85.3066 172.475 85.1953C172.229 85.0781 171.921 85.0195 171.552 85.0195C171.188 85.0195 170.863 85.0957 170.576 85.248C170.289 85.4004 170.046 85.6084 169.847 85.8721C169.653 86.1357 169.504 86.4404 169.398 86.7861C169.293 87.1318 169.24 87.501 169.24 87.8936ZM181.729 93.1758C181.026 93.1758 180.391 93.0615 179.822 92.833C179.26 92.5986 178.779 92.2734 178.381 91.8574C177.988 91.4414 177.687 90.9521 177.476 90.3896C177.265 89.8271 177.159 89.2207 177.159 88.5703V88.2188C177.159 87.4746 177.268 86.8008 177.484 86.1973C177.701 85.5938 178.003 85.0781 178.39 84.6504C178.776 84.2168 179.233 83.8857 179.761 83.6572C180.288 83.4287 180.859 83.3145 181.475 83.3145C182.154 83.3145 182.749 83.4287 183.259 83.6572C183.769 83.8857 184.19 84.208 184.524 84.624C184.864 85.0342 185.116 85.5234 185.28 86.0918C185.45 86.6602 185.535 87.2871 185.535 87.9727V88.8779H178.188V87.3574H183.443V87.1904C183.432 86.8096 183.355 86.4521 183.215 86.1182C183.08 85.7842 182.872 85.5146 182.591 85.3096C182.31 85.1045 181.935 85.002 181.466 85.002C181.114 85.002 180.801 85.0781 180.525 85.2305C180.256 85.377 180.03 85.5908 179.849 85.8721C179.667 86.1533 179.526 86.4932 179.427 86.8916C179.333 87.2842 179.286 87.7266 179.286 88.2188V88.5703C179.286 88.9863 179.342 89.373 179.453 89.7305C179.57 90.082 179.74 90.3896 179.963 90.6533C180.186 90.917 180.455 91.125 180.771 91.2773C181.088 91.4238 181.448 91.4971 181.853 91.4971C182.362 91.4971 182.816 91.3945 183.215 91.1895C183.613 90.9844 183.959 90.6943 184.252 90.3193L185.368 91.4004C185.163 91.6992 184.896 91.9863 184.568 92.2617C184.24 92.5312 183.839 92.751 183.364 92.9209C182.896 93.0908 182.351 93.1758 181.729 93.1758ZM189.314 85.3008V93H187.196V83.4902H189.218L189.314 85.3008ZM192.224 83.4287L192.206 85.3975C192.077 85.374 191.937 85.3564 191.784 85.3447C191.638 85.333 191.491 85.3271 191.345 85.3271C190.981 85.3271 190.662 85.3799 190.387 85.4854C190.111 85.585 189.88 85.7314 189.692 85.9248C189.511 86.1123 189.37 86.3408 189.271 86.6104C189.171 86.8799 189.112 87.1816 189.095 87.5156L188.611 87.5508C188.611 86.9531 188.67 86.3994 188.787 85.8896C188.904 85.3799 189.08 84.9316 189.314 84.5449C189.555 84.1582 189.854 83.8564 190.211 83.6396C190.574 83.4229 190.993 83.3145 191.468 83.3145C191.597 83.3145 191.734 83.3262 191.881 83.3496C192.033 83.373 192.147 83.3994 192.224 83.4287Z" fill="#717E84"/>
</svg>